<svg width="57" height="57" viewBox="0 0 57 57" fill="none" xmlns="http://www.w3.org/2000/svg">
<g clip-path="url(#clip0_1_128)">
<path d="M37.1847 28.9538L16.2672 28.9832C15.7965 28.9832 15.3991 28.8212 15.0751 28.4972C14.7519 28.174 14.5903 27.777 14.5903 27.3063C14.5903 26.8356 14.7523 26.4382 15.0763 26.1142C15.3995 25.791 15.7965 25.6294 16.2672 25.6294L37.1847 25.6588L28.2411 16.7152C27.9077 16.3818 27.7405 15.9895 27.7398 15.5384C27.7405 15.0873 27.9077 14.695 28.2411 14.3616C28.5745 14.0282 28.9668 13.8611 29.4179 13.8603C29.869 13.8611 30.2612 14.0282 30.5947 14.3616L42.3626 26.1295C42.696 26.4629 42.8627 26.8548 42.8627 27.3051C42.8627 27.757 42.696 28.1497 42.3626 28.4831L30.5947 40.251C30.2612 40.5845 29.869 40.7508 29.4179 40.75C28.9668 40.7508 28.5745 40.5845 28.2411 40.251C27.9077 39.9176 27.7413 39.5253 27.7421 39.0742C27.7413 38.6231 27.9077 38.2309 28.2411 37.8974L37.1847 28.9538Z" fill="#111111"/>
</g>
<defs>
<clipPath id="clip0_1_128">
<rect width="39.9417" height="39.9417" fill="white" transform="translate(28.2422 0.242188) rotate(45)"/>
</clipPath>
</defs>
</svg>
