<svg width="16" height="16" viewBox="0 0 16 16" fill="none" xmlns="http://www.w3.org/2000/svg">
<path d="M5.9168 14.0669L11.5335 8.46693C11.6001 8.40026 11.6472 8.32804 11.6748 8.25026C11.7028 8.17248 11.7168 8.08915 11.7168 8.00026C11.7168 7.91137 11.7028 7.82804 11.6748 7.75026C11.6472 7.67248 11.6001 7.60026 11.5335 7.53359L5.9168 1.91693C5.76124 1.76137 5.5668 1.68359 5.33346 1.68359C5.10013 1.68359 4.90013 1.76693 4.73346 1.93359C4.5668 2.10026 4.48346 2.2947 4.48346 2.51693C4.48346 2.73915 4.5668 2.93359 4.73346 3.10026L9.63346 8.00026L4.73346 12.9003C4.57791 13.0558 4.50013 13.2474 4.50013 13.4749C4.50013 13.7029 4.58346 13.9003 4.75013 14.0669C4.9168 14.2336 5.11124 14.3169 5.33346 14.3169C5.55569 14.3169 5.75013 14.2336 5.9168 14.0669Z" fill="#111111"/>
</svg>
