<svg width="18" height="18" viewBox="0 0 18 18" fill="none" xmlns="http://www.w3.org/2000/svg">
<path d="M15 1.5H3C2.175 1.5 1.5075 2.175 1.5075 3L1.5 16.5L4.5 13.5H15C15.825 13.5 16.5 12.825 16.5 12V3C16.5 2.175 15.825 1.5 15 1.5ZM12.75 10.5H5.25C4.8375 10.5 4.5 10.1625 4.5 9.75C4.5 9.3375 4.8375 9 5.25 9H12.75C13.1625 9 13.5 9.3375 13.5 9.75C13.5 10.1625 13.1625 10.5 12.75 10.5ZM12.75 8.25H5.25C4.8375 8.25 4.5 7.9125 4.5 7.5C4.5 7.0875 4.8375 6.75 5.25 6.75H12.75C13.1625 6.75 13.5 7.0875 13.5 7.5C13.5 7.9125 13.1625 8.25 12.75 8.25ZM12.75 6H5.25C4.8375 6 4.5 5.6625 4.5 5.25C4.5 4.8375 4.8375 4.5 5.25 4.5H12.75C13.1625 4.5 13.5 4.8375 13.5 5.25C13.5 5.6625 13.1625 6 12.75 6Z" fill="#89BEB2"/>
</svg>
