<svg width="42" height="42" viewBox="0 0 42 42" fill="none" xmlns="http://www.w3.org/2000/svg">
<path d="M34 8.30664L33.4376 8.36115C33.4376 8.36115 32.6328 8.43909 31.6449 8.70399C30.657 8.96868 29.4658 9.40771 28.6406 10.2328C27.8739 10.9998 27.4446 11.7553 27.3348 12.481C27.2506 13.0371 27.3754 13.5658 27.6521 13.9972L26.8461 14.8033C27.0098 13.7893 26.8206 12.7173 26.5876 11.8469C26.3229 10.859 25.9871 10.1194 25.9871 10.1194L25.7541 9.60887L25.2952 9.93429C25.2952 9.93429 24.6336 10.4071 23.9104 11.1305C23.1872 11.8537 22.3761 12.8271 22.0741 13.9545C21.7935 15.002 21.8001 15.8728 22.0677 16.5562C22.3353 17.2394 22.8869 17.7051 23.5369 17.8793C23.6024 17.8969 23.6698 17.9025 23.7365 17.9129L22.6238 19.0255C22.6075 19.3765 22.5615 19.7303 22.4678 20.0802C22.44 20.1836 22.4058 20.2767 22.3743 20.3749C22.0741 21.3375 21.6303 22.0876 21.0168 22.5775C20.6151 22.8983 20.1496 23.0805 19.6755 23.139C19.3383 23.1808 18.9967 23.1622 18.6698 23.0745C18.6458 23.0681 18.623 23.0581 18.5992 23.0509L17.3097 24.3404C17.4728 23.327 17.2825 22.2547 17.0493 21.385C16.7848 20.3971 16.4464 19.6611 16.4464 19.6611L16.2134 19.1471L15.7545 19.4762C15.7545 19.4762 15.0974 19.9455 14.3742 20.6687C13.651 21.3919 12.8354 22.369 12.5334 23.4962C12.2527 24.5437 12.2585 25.411 12.5261 26.0942C12.7937 26.7774 13.3472 27.2467 13.997 27.421C14.0625 27.4386 14.1299 27.4442 14.1964 27.4546L8.14242 33.5075C8.05267 33.5939 8.00148 33.7125 8.00002 33.837C7.99878 33.9616 8.04728 34.0814 8.13517 34.1697C8.22285 34.2578 8.34245 34.3072 8.46702 34.3065C8.59139 34.3059 8.71036 34.2551 8.79722 34.166L14.4633 28.501C14.456 28.4769 14.4463 28.4537 14.4397 28.4293C14.351 28.0982 14.3333 27.7527 14.3779 27.4117C14.4388 26.941 14.6214 26.4794 14.9392 26.0814C15.4265 25.4712 16.1711 25.0295 17.1274 24.7294C17.229 24.6966 17.3256 24.6601 17.4329 24.6315C17.7826 24.5379 18.1381 24.4893 18.4903 24.4738L19.645 23.3192C19.6554 23.3854 19.6612 23.4521 19.6786 23.517C19.8527 24.167 20.322 24.7194 21.0054 24.987C21.6886 25.2546 22.5587 25.2612 23.6061 24.9808C24.7333 24.6786 25.7069 23.8667 26.4301 23.1435C27.1533 22.4203 27.6263 21.7586 27.6263 21.7586L27.9517 21.2997L27.4412 21.0667C27.4412 21.0667 26.7016 20.7312 25.7137 20.4665C25.096 20.3009 24.3762 20.1554 23.6478 20.1427C23.3466 20.1373 23.0463 20.167 22.749 20.2161L24.0005 18.9637C23.9931 18.9388 23.9827 18.9152 23.9761 18.8903C23.8874 18.5593 23.8706 18.2138 23.9154 17.8728C23.9763 17.4025 24.1589 16.9413 24.4767 16.5433C24.9621 15.9356 25.7042 15.4949 26.6539 15.1947C26.76 15.1603 26.8616 15.1224 26.9739 15.0923C27.3199 14.9997 27.67 14.963 28.0178 14.9473L28.3107 14.6544C28.7418 14.9311 29.2708 15.0569 29.8269 14.9727C30.5524 14.8629 31.3072 14.4338 32.074 13.6669C32.8992 12.8417 33.3382 11.6487 33.6029 10.6608C33.8676 9.67291 33.9457 8.86804 33.9457 8.86804L34 8.30664ZM21.0085 14.3553L20.5488 14.6809C20.5488 14.6809 19.8872 15.1537 19.164 15.8771C18.4408 16.6003 17.6297 17.5745 17.3277 18.7019C17.0469 19.7495 17.0529 20.6194 17.3205 21.3026C17.5881 21.986 18.1404 22.4516 18.7903 22.6257C19.4403 22.7998 20.1539 22.673 20.7273 22.2149C21.3008 21.757 21.739 21.0073 22.0196 19.9597C22.3216 18.8323 22.1056 17.5814 21.841 16.5935C21.5763 15.6054 21.2415 14.8669 21.2415 14.8669L21.0085 14.3553ZM28.3949 15.3955C27.958 15.3878 27.5173 15.4282 27.0945 15.5414C26.0471 15.822 25.297 16.2602 24.8391 16.8336C24.3812 17.4069 24.2504 18.1197 24.4247 18.7697C24.5988 19.4198 25.0681 19.973 25.7515 20.2406C26.4347 20.5082 27.3048 20.514 28.3522 20.2333C29.4794 19.9313 30.453 19.1192 31.1762 18.396C31.8994 17.6728 32.3724 17.0112 32.3724 17.0112L32.6978 16.5527L32.1873 16.3197C32.1873 16.3197 31.4477 15.985 30.4598 15.7203C29.8423 15.5548 29.1233 15.4083 28.3949 15.3955ZM18.8547 24.9336C18.8396 24.9333 18.8245 24.9354 18.8093 24.9352C18.6373 24.9336 18.4657 24.9421 18.2942 24.957C18.2093 24.9644 18.1247 24.9721 18.0403 24.9841C18.0103 24.9883 17.9804 24.9928 17.9506 24.9976C17.8169 25.0196 17.6842 25.0451 17.5534 25.0801C16.8988 25.2555 16.3616 25.492 15.9391 25.7846L15.9383 25.7854C15.8542 25.8437 15.7748 25.904 15.6997 25.9668C15.6991 25.9672 15.6985 25.9681 15.6979 25.9685C15.6919 25.9737 15.6867 25.9788 15.6807 25.984C15.537 26.1057 15.4097 26.2346 15.2997 26.372C15.1283 26.5868 15.0029 26.8225 14.9224 27.0658C14.8428 27.3071 14.8074 27.5572 14.8144 27.8058V27.812V27.8128C14.8146 27.8203 14.8159 27.8271 14.8163 27.8346C14.8229 27.9942 14.8455 28.1527 14.887 28.308L14.8878 28.3088C14.9096 28.3897 14.9361 28.4688 14.9668 28.5464V28.5472C14.9975 28.6247 15.0325 28.7004 15.0721 28.774V28.7748C15.1115 28.8482 15.1558 28.9193 15.2035 28.9879V28.9887C15.4425 29.3328 15.7839 29.6113 16.2111 29.7786C16.8943 30.0462 17.7652 30.0529 18.8128 29.7724C19.2348 29.6593 19.6353 29.4735 20.0099 29.2482C20.0105 29.2478 20.0111 29.2476 20.0117 29.2474C20.1361 29.1726 20.258 29.0934 20.3763 29.0107C20.3769 29.0103 20.3776 29.0103 20.3782 29.0099C20.6153 28.8444 20.8398 28.6662 21.0502 28.484C21.261 28.3014 21.4579 28.1152 21.6387 27.9345C21.6395 27.9337 21.6397 27.9327 21.6405 27.9316C21.7993 27.7728 21.9402 27.6207 22.0723 27.4746C22.0907 27.454 22.1144 27.431 22.1322 27.4111C22.5693 26.9209 22.8332 26.5505 22.8332 26.5505L22.9837 26.3374L23.1597 26.0935L23.1578 26.0926L23.1586 26.091L22.6481 25.858L22.6454 25.8572C22.6454 25.8572 21.9104 25.5224 20.9223 25.2577C20.6988 25.1978 20.4582 25.1431 20.2121 25.0935C20.1572 25.0826 20.1037 25.072 20.048 25.0618C19.9705 25.0475 19.8929 25.0343 19.814 25.0218C19.7352 25.0096 19.6554 25.0001 19.5754 24.9901C19.4952 24.9802 19.416 24.9694 19.3351 24.9619C19.2137 24.9507 19.0914 24.9445 18.9687 24.9402C18.9305 24.9387 18.8928 24.9335 18.8545 24.9329L18.8547 24.9336Z" fill="#A49BDE"/>
<circle cx="21" cy="21" r="20.5" stroke="#A49BDE"/>
<path d="M8 5.5L31.5 38" stroke="#FF0000"/>
</svg>
