<svg width="32" height="32" viewBox="0 0 32 32" fill="none" xmlns="http://www.w3.org/2000/svg">
<path d="M21.6665 19.6666H20.6132L20.2398 19.3066C21.0731 18.3386 21.6821 17.1983 22.0232 15.9675C22.3644 14.7366 22.4292 13.4455 22.2132 12.1866C21.5865 8.47997 18.4932 5.51997 14.7598 5.06663C13.4473 4.90059 12.1142 5.037 10.8625 5.46542C9.61086 5.89384 8.47377 6.60292 7.53829 7.53841C6.6028 8.47389 5.89372 9.61098 5.4653 10.8627C5.03687 12.1144 4.90047 13.4475 5.06651 14.76C5.51984 18.4933 8.47984 21.5866 12.1865 22.2133C13.4454 22.4294 14.7365 22.3645 15.9673 22.0234C17.1982 21.6822 18.3385 21.0732 19.3065 20.24L19.6665 20.6133V21.6666L25.3332 27.3333C25.8798 27.88 26.7732 27.88 27.3198 27.3333C27.8665 26.7866 27.8665 25.8933 27.3198 25.3466L21.6665 19.6666ZM13.6665 19.6666C10.3465 19.6666 7.66651 16.9866 7.66651 13.6666C7.66651 10.3466 10.3465 7.66663 13.6665 7.66663C16.9865 7.66663 19.6665 10.3466 19.6665 13.6666C19.6665 16.9866 16.9865 19.6666 13.6665 19.6666Z" fill="#F9E4DD"/>
</svg>
