<svg width="42" height="42" viewBox="0 0 42 42" fill="none" xmlns="http://www.w3.org/2000/svg">
<path d="M33.5285 19.9903C33.3451 19.0152 32.7715 18.1573 31.9404 17.6152C32.6025 16.7058 33.0606 15.664 33.2832 14.5613C33.3634 14.1924 33.1418 13.8248 32.7777 13.724L32.229 13.5652C32.0289 13.506 31.8128 13.5374 31.6378 13.6512C31.4628 13.7651 31.3463 13.95 31.3195 14.1572C31.1991 15.0694 30.9537 15.9611 30.5902 16.8066C29.7341 16.3732 28.7515 16.2579 27.8182 16.4817C26.3744 16.8644 25.1255 18.1711 24.0063 20.4739C22.8874 22.7768 19.5737 27.9459 16.6711 30.0108C14.9167 31.2598 12.5994 30.9566 10.9606 30.4872H10.9608C10.6127 30.3838 10.239 30.5331 10.0585 30.8481C9.98621 30.9735 9.94633 31.115 9.94294 31.2597C9.94512 31.4749 10.0336 31.6803 10.1883 31.8299C11.9942 33.5292 14.4026 34.4385 16.8805 34.3569C17.4283 34.3583 17.9757 34.3247 18.5191 34.2558C22.7929 33.7144 28.0127 29.9098 30.5967 26.5388C32.2138 24.4308 33.3472 22.6404 33.535 21.0379V21.0376C33.5868 20.6903 33.5843 20.3372 33.5278 19.9907L33.5285 19.9903ZM32.0343 14.2582L32.5757 14.417C32.3657 15.4213 31.9475 16.3705 31.3483 17.2035C31.305 17.1817 31.2687 17.1602 31.2327 17.1385L31.233 17.1387C31.64 16.2231 31.91 15.2524 32.0343 14.2582ZM27.9985 17.1748C29.1012 16.9606 30.2429 17.2316 31.1317 17.9183V17.9256C31.1491 17.9466 31.1684 17.9659 31.1895 17.9833C31.2303 18.0201 31.2801 18.045 31.334 18.0556C32.0959 18.4979 32.634 19.2434 32.8138 20.1059C32.8406 20.2681 32.8527 20.4324 32.85 20.5968C32.7135 20.6226 32.5784 20.6565 32.4457 20.6978C32.303 20.7529 32.151 20.7798 31.998 20.7771C31.9115 20.7411 31.8032 20.5245 31.7236 20.3657H31.7239C31.6151 20.0865 31.4237 19.8472 31.1752 19.68C30.8873 19.5509 30.5651 19.5204 30.2584 19.5932C30.108 19.6227 29.9536 19.6227 29.8035 19.5932C29.6935 19.459 29.6166 19.3007 29.5796 19.1313C29.5219 18.8439 29.3725 18.5828 29.1537 18.3877C28.8639 18.2173 28.5289 18.1392 28.1936 18.1639C28.0621 18.1711 27.9304 18.1566 27.8037 18.1206C27.6638 18.0309 27.5922 17.8651 27.6232 17.7017C27.6345 17.5756 27.6222 17.4482 27.5871 17.3263C27.7194 17.2633 27.8571 17.2125 27.9985 17.1748ZM30.0273 26.0978C29.2855 27.0533 28.4566 27.938 27.5511 28.74C27.4873 28.8019 27.4015 28.8357 27.3128 28.834C27.1631 28.835 27.0283 28.7436 26.9739 28.6044C26.9195 28.4649 26.9565 28.3066 27.0674 28.2058C27.9381 27.4313 28.7355 26.5783 29.4498 25.6573C29.5714 25.498 29.7991 25.4671 29.9586 25.5889C30.1181 25.7105 30.1488 25.9382 30.0273 26.0978ZM30.5109 25.1882C30.3115 25.1882 30.1501 25.0265 30.1501 24.8273C30.1501 24.6279 30.3115 24.4662 30.5109 24.4662C30.7104 24.4662 30.8718 24.6279 30.8718 24.8273C30.8718 25.0265 30.7104 25.1882 30.5109 25.1882ZM34.0521 32.3848C33.911 32.5257 33.6825 32.5257 33.5416 32.3848L32.9641 31.8073C32.8273 31.6657 32.8293 31.4404 32.9685 31.3012C33.1077 31.162 33.3328 31.16 33.4744 31.2968L34.0519 31.8743H34.0521C34.193 32.0154 34.193 32.2439 34.0521 32.3848ZM32.2566 31.3077C32.3975 31.4486 32.3975 31.6771 32.2566 31.8182L31.6792 32.3957H31.6789C31.538 32.5366 31.3096 32.5366 31.1687 32.3957C31.0277 32.2548 31.0277 32.0261 31.1687 31.8852L31.7461 31.3077C31.887 31.1668 32.1157 31.1668 32.2566 31.3077ZM31.158 30.0227H31.1578C31.0882 29.9553 31.0485 29.863 31.0475 29.7663C31.0468 29.6693 31.0848 29.5763 31.1532 29.5079C31.2218 29.4392 31.3149 29.4013 31.4116 29.402C31.5085 29.403 31.6008 29.4426 31.6683 29.5122L32.2457 30.0897C32.3492 30.1931 32.3801 30.3486 32.3243 30.4837C32.2682 30.6186 32.1362 30.7066 31.9902 30.7063C31.8945 30.7061 31.8029 30.6679 31.7352 30.6002L31.158 30.0227ZM32.9533 30.5893C32.8123 30.4484 32.8123 30.22 32.9533 30.0791L33.5307 29.5016V29.5014C33.5979 29.4317 33.6905 29.3921 33.7872 29.3911C33.8841 29.3904 33.9772 29.4286 34.0456 29.497C34.114 29.5654 34.1522 29.6585 34.1514 29.7554C34.1505 29.8521 34.1108 29.9447 34.0412 30.0119L33.4638 30.5893H33.4635C33.3226 30.7302 33.0942 30.7302 32.9533 30.5893ZM9.68373 16.241C9.82465 16.3819 9.82465 16.6105 9.68373 16.7515L9.39488 17.0403V17.0401C9.25323 17.1769 9.0282 17.1749 8.88897 17.0357C8.74974 16.8965 8.74756 16.6715 8.88437 16.5298L9.17323 16.241C9.31415 16.1 9.54258 16.1 9.68373 16.241ZM11.1998 16.5298C11.2694 16.597 11.309 16.6896 11.3098 16.7863C11.3107 16.8832 11.2725 16.9763 11.2041 17.0447C11.1357 17.1131 11.0427 17.1513 10.9457 17.1503C10.849 17.1496 10.7565 17.1099 10.6893 17.0401L10.4004 16.7512V16.7515C10.2595 16.6103 10.2597 16.3816 10.4009 16.2407C10.5421 16.0998 10.7707 16.0998 10.9117 16.241L11.1998 16.5298ZM10.3954 15.5262C10.2544 15.3853 10.2544 15.1568 10.3954 15.0159L10.6842 14.7271C10.8259 14.5903 11.0509 14.5922 11.1904 14.7314C11.3296 14.8707 11.3315 15.0959 11.1947 15.2376L10.9059 15.5264V15.5262C10.7649 15.6671 10.5365 15.6671 10.3954 15.5262ZM8.87955 15.2376H8.87931C8.81162 15.1699 8.77344 15.078 8.77344 14.9823C8.77344 14.8864 8.81139 14.7945 8.87907 14.7268C9.01998 14.5857 9.24865 14.5854 9.38981 14.7263L9.67867 15.0152C9.81983 15.1561 9.81983 15.3848 9.67891 15.5259C9.53799 15.6671 9.30932 15.6674 9.16816 15.5262L8.87955 15.2376ZM11.7673 22.5715C12.7557 21.3753 13.4277 20.3905 12.4171 19.5191H12.4168C12.3114 19.429 12.267 19.2869 12.3023 19.1527C12.3373 19.0188 12.4461 18.9168 12.5822 18.8902C13.0564 18.8348 13.5355 18.9347 13.9481 19.1749C14.3605 19.4154 14.6836 19.7831 14.8693 20.2231C15.0484 20.6697 15.0636 21.1653 14.9118 21.6221C14.8122 22.0891 14.7617 22.3881 14.9631 22.6247C15.1096 22.8227 15.3648 22.907 15.6005 22.8355C15.8267 22.7719 15.9957 22.5831 16.0336 22.3511C16.0445 22.149 16.0141 21.9469 15.9442 21.757C15.8294 21.5027 15.7989 21.2182 15.8577 20.9455C15.9162 20.6726 16.0607 20.4258 16.2698 20.2409C16.3568 20.159 16.4791 20.1254 16.5959 20.1512C16.7129 20.1773 16.8091 20.2595 16.8531 20.371C17.0537 20.8798 17.4073 21.3136 17.8651 21.6126C18.2067 21.7678 18.4711 22.054 18.5987 22.4067C18.6937 22.6933 18.6678 23.0061 18.5264 23.273C18.4063 23.4796 18.3758 23.7264 18.4421 23.9561C18.473 23.9957 18.5987 24.0138 18.8029 23.964C19.0679 23.876 19.2685 23.6578 19.3335 23.3863C19.376 23.0924 19.3393 22.7922 19.2271 22.5171C19.115 22.242 18.9315 22.0018 18.6954 21.8212C18.313 21.4744 18.0681 21.0016 18.0053 20.4891C17.9427 19.9767 18.066 19.4587 18.3531 19.0297C18.451 18.8609 18.5165 18.6755 18.5467 18.4831C18.4798 18.2588 18.3768 18.0471 18.2422 17.8556C17.7017 17.1706 17.5252 16.2665 17.7684 15.4285C18.0645 14.7123 18.6533 14.1568 19.3855 13.9031C19.5271 13.8484 19.6879 13.8881 19.7877 14.0024C19.8875 14.1167 19.9052 14.2814 19.8317 14.4143C19.8274 14.4215 19.4058 15.2083 19.8527 15.6164C19.9944 15.7358 20.1672 15.8124 20.3509 15.8373C20.5349 15.8622 20.7217 15.8339 20.8902 15.7563C21.0451 15.6466 21.1621 15.4909 21.2245 15.3113C21.2868 15.132 21.2914 14.9374 21.238 14.7551C21.1764 14.3621 21.069 13.978 20.9182 13.6101C20.6731 13.0525 20.5648 12.4443 20.6021 11.8364C20.5975 11.4414 20.712 11.0544 20.931 10.7257C21.15 10.3972 21.463 10.1425 21.8293 9.9948C21.9569 9.95419 22.0966 9.98755 22.1921 10.0816C22.2873 10.1756 22.3229 10.3148 22.2842 10.4429C22.1587 10.8846 22.1964 11.3566 22.3903 11.7729C22.5907 12.0779 22.9141 12.2807 23.2762 12.3278C23.7564 12.3578 24.2056 12.5758 24.5256 12.935C24.7206 13.3392 24.7492 13.8038 24.6051 14.2287C24.6921 14.284 24.7963 14.3058 24.8983 14.2901C25.0141 14.2872 25.1185 14.2197 25.169 14.1153C25.2222 13.8465 25.1857 13.5676 25.0651 13.3213C24.9126 12.971 24.8654 12.584 24.9292 12.2074C25.0515 11.7168 25.344 11.2858 25.7545 10.9906C26.1649 10.6955 26.6669 10.5558 27.1709 10.5959C27.3194 10.6027 27.4487 10.6996 27.4968 10.8403C27.5446 10.9812 27.5011 11.1369 27.3875 11.2329C27.2275 11.3839 27.1644 11.6114 27.2236 11.8234C27.264 11.9677 27.3537 12.0068 27.7564 12.0767C27.9761 12.1042 28.1905 12.1647 28.3923 12.2558C28.6744 12.3987 28.8878 12.6481 28.9857 12.9488C29.0873 13.2877 29.0445 13.6534 28.8673 13.9594C28.8243 14.0467 28.7476 14.1127 28.6553 14.1426C28.5627 14.1726 28.4622 14.1639 28.3761 14.1187C28.2901 14.0735 28.2258 13.9954 28.198 13.9024C28.1702 13.8091 28.1813 13.7087 28.2284 13.6239C28.3133 13.4883 28.3391 13.3242 28.3007 13.169C28.2613 13.0522 28.1779 12.9556 28.0682 12.8997C27.9294 12.8431 27.7837 12.8054 27.635 12.7878C27.3948 12.7878 27.16 12.7143 26.9628 12.577C26.7656 12.4397 26.6152 12.2451 26.5318 12.0196C26.4736 11.8197 26.4647 11.6087 26.506 11.4047C26.0685 11.5623 25.7407 11.9312 25.6353 12.3841C25.6136 12.6278 25.6549 12.8726 25.756 13.0952C25.9392 13.4958 25.9723 13.9487 25.849 14.3718C25.7383 14.62 25.5394 14.8182 25.2907 14.9277C25.0419 15.0372 24.7613 15.0503 24.5034 14.9644C24.0936 14.8832 23.8263 14.4866 23.9049 14.0764C23.9916 13.8356 23.9991 13.5733 23.9266 13.3277C23.8401 13.1941 23.4935 13.1068 23.1362 13.0324H23.136C22.5733 12.9463 22.0758 12.6193 21.7737 12.1365C21.6115 11.8532 21.5177 11.5356 21.5 11.2096C21.3949 11.4184 21.3352 11.6473 21.3248 11.8811C21.2934 12.3868 21.3864 12.8924 21.5962 13.3539C21.7674 13.7711 21.8885 14.2074 21.9571 14.6534C22.04 14.9826 22.0146 15.3299 21.8846 15.6439C21.7546 15.9577 21.5269 16.2211 21.2351 16.3952C20.9349 16.5419 20.5979 16.5965 20.2666 16.5526C19.9354 16.5088 19.6243 16.3681 19.3727 16.1484C19.0522 15.8545 18.89 15.4259 18.9359 14.9932C18.7198 15.1736 18.5543 15.4068 18.4559 15.6705C18.2932 16.3053 18.447 16.9796 18.8687 17.481C19.0614 17.7532 19.1977 18.0609 19.2702 18.3865C19.276 18.7198 19.1876 19.0483 19.0145 19.3335C18.7206 19.9586 18.4428 20.5493 19.2093 21.3038H19.2096C19.5468 21.5668 19.8032 21.9194 19.9495 22.3211C20.0957 22.7231 20.1262 23.1579 20.0367 23.5764C19.9028 24.0997 19.5006 24.5123 18.9807 24.6592C18.7917 24.7337 18.5843 24.7482 18.3868 24.7006C18.1893 24.6532 18.0112 24.5459 17.8768 24.3936C17.6227 23.9375 17.6283 23.3811 17.8913 22.9303C17.9428 22.8365 17.9519 22.7255 17.9167 22.6247C17.8504 22.4577 17.7206 22.3241 17.5555 22.253C17.1627 22.0458 16.8292 21.742 16.586 21.37C16.5998 21.4234 16.6162 21.4819 16.6351 21.5469C16.7342 21.8302 16.7721 22.1309 16.747 22.4299C16.6979 22.7717 16.5176 23.0807 16.2442 23.2914C15.9708 23.5022 15.6259 23.5979 15.2832 23.5585C14.9402 23.5189 14.6262 23.347 14.4079 23.0797C14.0762 22.6064 13.9989 22.0002 14.2015 21.459C14.3083 21.1617 14.3151 20.8378 14.221 20.5364C14.0661 20.2016 13.8099 19.9239 13.4889 19.7423C14.0252 20.9589 12.9518 22.2598 12.3223 23.0212C12.1401 23.2262 11.9745 23.4456 11.8278 23.6774C11.4437 24.3825 11.3146 25.1985 11.4625 25.9878C11.6105 26.777 12.0265 27.491 12.6399 28.009C12.7946 28.1349 12.8178 28.3624 12.6919 28.5171C12.566 28.6718 12.3383 28.6952 12.1836 28.5693C11.4497 27.9406 10.951 27.081 10.77 26.1318C10.5889 25.1826 10.7361 24.2 11.1874 23.3453C11.3545 23.0695 11.5474 22.8104 11.7634 22.5713L11.7673 22.5715ZM13.4226 12.6089C13.6189 13.7641 14.0001 13.9698 14.442 14.1069C14.5295 14.1206 14.6099 14.162 14.6721 14.2251C14.9926 14.6568 15.493 14.918 16.03 14.934C16.1173 14.9355 16.2043 14.9263 16.2894 14.9074C16.424 14.8716 16.5263 14.7617 16.5519 14.6246C16.5775 14.4878 16.5219 14.3481 16.409 14.2664C16.1161 14.0969 15.9108 13.8088 15.8463 13.4767C15.7818 13.1443 15.8642 12.8003 16.0728 12.5338C16.9889 11.162 16.6084 10.5166 15.5848 9.81057C15.3892 9.65539 15.2461 9.44389 15.1746 9.20483C15.1033 8.96577 15.1067 8.71052 15.1847 8.47366C15.2292 8.33782 15.1896 8.18843 15.0832 8.09272C14.9769 7.997 14.8243 7.97307 14.6938 8.03181C14.206 8.2566 13.8178 8.65301 13.6037 9.14564C13.5135 9.46349 13.5266 9.80187 13.6414 10.1115C13.6687 10.2205 13.7137 10.388 13.7224 10.4796L13.7221 10.4799C13.5872 10.4117 13.4637 10.323 13.3562 10.2169C13.2769 10.1408 13.1679 10.1035 13.0586 10.1159C12.9494 10.1292 12.8522 10.1913 12.7944 10.2848C12.5921 10.5261 12.4995 10.8405 12.5384 11.1528C12.5776 11.4651 12.7449 11.7469 13.0001 11.9309C13.2123 12.1023 13.36 12.3408 13.419 12.6072L13.4226 12.6089ZM13.8183 11.2273L13.8181 11.2271C13.9906 11.2227 14.1536 11.1463 14.2672 11.0163C14.4724 10.6929 14.5009 10.288 14.3431 9.93921C14.2851 9.77459 14.2606 9.60008 14.2708 9.4258C14.3102 9.3308 14.3614 9.24113 14.4231 9.1587C14.4789 9.66437 14.7525 10.1205 15.1724 10.4077C15.9427 10.939 16.1353 11.1369 15.4692 12.136C15.1552 12.5856 15.0392 13.1442 15.148 13.6815C15.0075 13.5539 14.8376 13.4633 14.6534 13.4173C14.4368 13.3509 14.2693 13.2982 14.1308 12.4875L14.1306 12.4877C14.0479 12.0744 13.8296 11.7007 13.5105 11.4256C13.3481 11.2625 13.258 11.1716 13.2536 11.0524C13.4189 11.1641 13.6135 11.2245 13.8129 11.2257L13.8183 11.2273Z" fill="#CF6246"/>
<circle cx="21" cy="21" r="20.5" stroke="#CF6246"/>
</svg>
