<svg width="50" height="50" viewBox="0 0 50 50" fill="none" xmlns="http://www.w3.org/2000/svg">
<g filter="url(#filter0_d_1_61)">
<path d="M37.5285 19.9903C37.3451 19.0152 36.7715 18.1573 35.9404 17.6152C36.6025 16.7058 37.0606 15.664 37.2832 14.5613C37.3634 14.1924 37.1418 13.8248 36.7777 13.724L36.229 13.5652C36.0289 13.506 35.8128 13.5374 35.6378 13.6512C35.4628 13.7651 35.3463 13.95 35.3195 14.1572C35.1991 15.0694 34.9537 15.9611 34.5902 16.8066C33.7341 16.3732 32.7515 16.2579 31.8182 16.4817C30.3744 16.8644 29.1255 18.1711 28.0063 20.4739C26.8874 22.7768 23.5737 27.9459 20.6711 30.0108C18.9167 31.2598 16.5994 30.9566 14.9606 30.4872H14.9608C14.6127 30.3838 14.239 30.5331 14.0585 30.8481C13.9862 30.9735 13.9463 31.115 13.9429 31.2597C13.9451 31.4749 14.0336 31.6803 14.1883 31.8299C15.9942 33.5292 18.4026 34.4385 20.8805 34.3569C21.4283 34.3583 21.9757 34.3247 22.5191 34.2558C26.7929 33.7144 32.0127 29.9098 34.5967 26.5388C36.2138 24.4308 37.3472 22.6404 37.535 21.0379V21.0376C37.5868 20.6903 37.5843 20.3372 37.5278 19.9907L37.5285 19.9903ZM36.0343 14.2582L36.5757 14.417C36.3657 15.4213 35.9475 16.3705 35.3483 17.2035C35.305 17.1817 35.2687 17.1602 35.2327 17.1385L35.233 17.1387C35.64 16.2231 35.91 15.2524 36.0343 14.2582ZM31.9985 17.1748C33.1012 16.9606 34.2429 17.2316 35.1317 17.9183V17.9256C35.1491 17.9466 35.1684 17.9659 35.1895 17.9833C35.2303 18.0201 35.2801 18.045 35.334 18.0556C36.0959 18.4979 36.634 19.2434 36.8138 20.1059C36.8406 20.2681 36.8527 20.4324 36.85 20.5968C36.7135 20.6226 36.5784 20.6565 36.4457 20.6978C36.303 20.7529 36.151 20.7798 35.998 20.7771C35.9115 20.7411 35.8032 20.5245 35.7236 20.3657H35.7239C35.6151 20.0865 35.4237 19.8472 35.1752 19.68C34.8873 19.5509 34.5651 19.5204 34.2584 19.5932C34.108 19.6227 33.9536 19.6227 33.8035 19.5932C33.6935 19.459 33.6166 19.3007 33.5796 19.1313C33.5219 18.8439 33.3725 18.5828 33.1537 18.3877C32.8639 18.2173 32.5289 18.1392 32.1936 18.1639C32.0621 18.1711 31.9304 18.1566 31.8037 18.1206C31.6638 18.0309 31.5922 17.8651 31.6232 17.7017C31.6345 17.5756 31.6222 17.4482 31.5871 17.3263C31.7194 17.2633 31.8571 17.2125 31.9985 17.1748ZM34.0273 26.0978C33.2855 27.0533 32.4566 27.938 31.5511 28.74C31.4873 28.8019 31.4015 28.8357 31.3128 28.834C31.1631 28.835 31.0283 28.7436 30.9739 28.6044C30.9195 28.4649 30.9565 28.3066 31.0674 28.2058C31.9381 27.4313 32.7355 26.5783 33.4498 25.6573C33.5714 25.498 33.7991 25.4671 33.9586 25.5889C34.1181 25.7105 34.1488 25.9382 34.0273 26.0978ZM34.5109 25.1882C34.3115 25.1882 34.1501 25.0265 34.1501 24.8273C34.1501 24.6279 34.3115 24.4662 34.5109 24.4662C34.7104 24.4662 34.8718 24.6279 34.8718 24.8273C34.8718 25.0265 34.7104 25.1882 34.5109 25.1882ZM38.0521 32.3848C37.911 32.5257 37.6825 32.5257 37.5416 32.3848L36.9641 31.8073C36.8273 31.6657 36.8293 31.4404 36.9685 31.3012C37.1077 31.162 37.3328 31.16 37.4744 31.2968L38.0519 31.8743H38.0521C38.193 32.0154 38.193 32.2439 38.0521 32.3848ZM36.2566 31.3077C36.3975 31.4486 36.3975 31.6771 36.2566 31.8182L35.6792 32.3957H35.6789C35.538 32.5366 35.3096 32.5366 35.1687 32.3957C35.0277 32.2548 35.0277 32.0261 35.1687 31.8852L35.7461 31.3077C35.887 31.1668 36.1157 31.1668 36.2566 31.3077ZM35.158 30.0227H35.1578C35.0882 29.9553 35.0485 29.863 35.0475 29.7663C35.0468 29.6693 35.0848 29.5763 35.1532 29.5079C35.2218 29.4392 35.3149 29.4013 35.4116 29.402C35.5085 29.403 35.6008 29.4426 35.6683 29.5122L36.2457 30.0897C36.3492 30.1931 36.3801 30.3486 36.3243 30.4837C36.2682 30.6186 36.1362 30.7066 35.9902 30.7063C35.8945 30.7061 35.8029 30.6679 35.7352 30.6002L35.158 30.0227ZM36.9533 30.5893C36.8123 30.4484 36.8123 30.22 36.9533 30.0791L37.5307 29.5016V29.5014C37.5979 29.4317 37.6905 29.3921 37.7872 29.3911C37.8841 29.3904 37.9772 29.4286 38.0456 29.497C38.114 29.5654 38.1522 29.6585 38.1514 29.7554C38.1505 29.8521 38.1108 29.9447 38.0412 30.0119L37.4638 30.5893H37.4635C37.3226 30.7302 37.0942 30.7302 36.9533 30.5893ZM13.6837 16.241C13.8247 16.3819 13.8247 16.6105 13.6837 16.7515L13.3949 17.0403V17.0401C13.2532 17.1769 13.0282 17.1749 12.889 17.0357C12.7497 16.8965 12.7476 16.6715 12.8844 16.5298L13.1732 16.241C13.3141 16.1 13.5426 16.1 13.6837 16.241ZM15.1998 16.5298C15.2694 16.597 15.309 16.6896 15.3098 16.7863C15.3107 16.8832 15.2725 16.9763 15.2041 17.0447C15.1357 17.1131 15.0427 17.1513 14.9457 17.1503C14.849 17.1496 14.7565 17.1099 14.6893 17.0401L14.4004 16.7512V16.7515C14.2595 16.6103 14.2597 16.3816 14.4009 16.2407C14.5421 16.0998 14.7707 16.0998 14.9117 16.241L15.1998 16.5298ZM14.3954 15.5262C14.2544 15.3853 14.2544 15.1568 14.3954 15.0159L14.6842 14.7271C14.8259 14.5903 15.0509 14.5922 15.1904 14.7314C15.3296 14.8707 15.3315 15.0959 15.1947 15.2376L14.9059 15.5264V15.5262C14.7649 15.6671 14.5365 15.6671 14.3954 15.5262ZM12.8795 15.2376H12.8793C12.8116 15.1699 12.7734 15.078 12.7734 14.9823C12.7734 14.8864 12.8114 14.7945 12.8791 14.7268C13.02 14.5857 13.2487 14.5854 13.3898 14.7263L13.6787 15.0152C13.8198 15.1561 13.8198 15.3848 13.6789 15.5259C13.538 15.6671 13.3093 15.6674 13.1682 15.5262L12.8795 15.2376ZM15.7673 22.5715C16.7557 21.3753 17.4277 20.3905 16.4171 19.5191H16.4168C16.3114 19.429 16.267 19.2869 16.3023 19.1527C16.3373 19.0188 16.4461 18.9168 16.5822 18.8902C17.0564 18.8348 17.5355 18.9347 17.9481 19.1749C18.3605 19.4154 18.6836 19.7831 18.8693 20.2231C19.0484 20.6697 19.0636 21.1653 18.9118 21.6221C18.8122 22.0891 18.7617 22.3881 18.9631 22.6247C19.1096 22.8227 19.3648 22.907 19.6005 22.8355C19.8267 22.7719 19.9957 22.5831 20.0336 22.3511C20.0445 22.149 20.0141 21.9469 19.9442 21.757C19.8294 21.5027 19.7989 21.2182 19.8577 20.9455C19.9162 20.6726 20.0607 20.4258 20.2698 20.2409C20.3568 20.159 20.4791 20.1254 20.5959 20.1512C20.7129 20.1773 20.8091 20.2595 20.8531 20.371C21.0537 20.8798 21.4073 21.3136 21.8651 21.6126C22.2067 21.7678 22.4711 22.054 22.5987 22.4067C22.6937 22.6933 22.6678 23.0061 22.5264 23.273C22.4063 23.4796 22.3758 23.7264 22.4421 23.9561C22.473 23.9957 22.5987 24.0138 22.8029 23.964C23.0679 23.876 23.2685 23.6578 23.3335 23.3863C23.376 23.0924 23.3393 22.7922 23.2271 22.5171C23.115 22.242 22.9315 22.0018 22.6954 21.8212C22.313 21.4744 22.0681 21.0016 22.0053 20.4891C21.9427 19.9767 22.066 19.4587 22.3531 19.0297C22.451 18.8609 22.5165 18.6755 22.5467 18.4831C22.4798 18.2588 22.3768 18.0471 22.2422 17.8556C21.7017 17.1706 21.5252 16.2665 21.7684 15.4285C22.0645 14.7123 22.6533 14.1568 23.3855 13.9031C23.5271 13.8484 23.6879 13.8881 23.7877 14.0024C23.8875 14.1167 23.9052 14.2814 23.8317 14.4143C23.8274 14.4215 23.4058 15.2083 23.8527 15.6164C23.9944 15.7358 24.1672 15.8124 24.3509 15.8373C24.5349 15.8622 24.7217 15.8339 24.8902 15.7563C25.0451 15.6466 25.1621 15.4909 25.2245 15.3113C25.2868 15.132 25.2914 14.9374 25.238 14.7551C25.1764 14.3621 25.069 13.978 24.9182 13.6101C24.6731 13.0525 24.5648 12.4443 24.6021 11.8364C24.5975 11.4414 24.712 11.0544 24.931 10.7257C25.15 10.3972 25.463 10.1425 25.8293 9.9948C25.9569 9.95419 26.0966 9.98755 26.1921 10.0816C26.2873 10.1756 26.3229 10.3148 26.2842 10.4429C26.1587 10.8846 26.1964 11.3566 26.3903 11.7729C26.5907 12.0779 26.9141 12.2807 27.2762 12.3278C27.7564 12.3578 28.2056 12.5758 28.5256 12.935C28.7206 13.3392 28.7492 13.8038 28.6051 14.2287C28.6921 14.284 28.7963 14.3058 28.8983 14.2901C29.0141 14.2872 29.1185 14.2197 29.169 14.1153C29.2222 13.8465 29.1857 13.5676 29.0651 13.3213C28.9126 12.971 28.8654 12.584 28.9292 12.2074C29.0515 11.7168 29.344 11.2858 29.7545 10.9906C30.1649 10.6955 30.6669 10.5558 31.1709 10.5959C31.3194 10.6027 31.4487 10.6996 31.4968 10.8403C31.5446 10.9812 31.5011 11.1369 31.3875 11.2329C31.2275 11.3839 31.1644 11.6114 31.2236 11.8234C31.264 11.9677 31.3537 12.0068 31.7564 12.0767C31.9761 12.1042 32.1905 12.1647 32.3923 12.2558C32.6744 12.3987 32.8878 12.6481 32.9857 12.9488C33.0873 13.2877 33.0445 13.6534 32.8673 13.9594C32.8243 14.0467 32.7476 14.1127 32.6553 14.1426C32.5627 14.1726 32.4622 14.1639 32.3761 14.1187C32.2901 14.0735 32.2258 13.9954 32.198 13.9024C32.1702 13.8091 32.1813 13.7087 32.2284 13.6239C32.3133 13.4883 32.3391 13.3242 32.3007 13.169C32.2613 13.0522 32.1779 12.9556 32.0682 12.8997C31.9294 12.8431 31.7837 12.8054 31.635 12.7878C31.3948 12.7878 31.16 12.7143 30.9628 12.577C30.7656 12.4397 30.6152 12.2451 30.5318 12.0196C30.4736 11.8197 30.4647 11.6087 30.506 11.4047C30.0685 11.5623 29.7407 11.9312 29.6353 12.3841C29.6136 12.6278 29.6549 12.8726 29.756 13.0952C29.9392 13.4958 29.9723 13.9487 29.849 14.3718C29.7383 14.62 29.5394 14.8182 29.2907 14.9277C29.0419 15.0372 28.7613 15.0503 28.5034 14.9644C28.0936 14.8832 27.8263 14.4866 27.9049 14.0764C27.9916 13.8356 27.9991 13.5733 27.9266 13.3277C27.8401 13.1941 27.4935 13.1068 27.1362 13.0324H27.136C26.5733 12.9463 26.0758 12.6193 25.7737 12.1365C25.6115 11.8532 25.5177 11.5356 25.5 11.2096C25.3949 11.4184 25.3352 11.6473 25.3248 11.8811C25.2934 12.3868 25.3864 12.8924 25.5962 13.3539C25.7674 13.7711 25.8885 14.2074 25.9571 14.6534C26.04 14.9826 26.0146 15.3299 25.8846 15.6439C25.7546 15.9577 25.5269 16.2211 25.2351 16.3952C24.9349 16.5419 24.5979 16.5965 24.2666 16.5526C23.9354 16.5088 23.6243 16.3681 23.3727 16.1484C23.0522 15.8545 22.89 15.4259 22.9359 14.9932C22.7198 15.1736 22.5543 15.4068 22.4559 15.6705C22.2932 16.3053 22.447 16.9796 22.8687 17.481C23.0614 17.7532 23.1977 18.0609 23.2702 18.3865C23.276 18.7198 23.1876 19.0483 23.0145 19.3335C22.7206 19.9586 22.4428 20.5493 23.2093 21.3038H23.2096C23.5468 21.5668 23.8032 21.9194 23.9495 22.3211C24.0957 22.7231 24.1262 23.1579 24.0367 23.5764C23.9028 24.0997 23.5006 24.5123 22.9807 24.6592C22.7917 24.7337 22.5843 24.7482 22.3868 24.7006C22.1893 24.6532 22.0112 24.5459 21.8768 24.3936C21.6227 23.9375 21.6283 23.3811 21.8913 22.9303C21.9428 22.8365 21.9519 22.7255 21.9167 22.6247C21.8504 22.4577 21.7206 22.3241 21.5555 22.253C21.1627 22.0458 20.8292 21.742 20.586 21.37C20.5998 21.4234 20.6162 21.4819 20.6351 21.5469C20.7342 21.8302 20.7721 22.1309 20.747 22.4299C20.6979 22.7717 20.5176 23.0807 20.2442 23.2914C19.9708 23.5022 19.6259 23.5979 19.2832 23.5585C18.9402 23.5189 18.6262 23.347 18.4079 23.0797C18.0762 22.6064 17.9989 22.0002 18.2015 21.459C18.3083 21.1617 18.3151 20.8378 18.221 20.5364C18.0661 20.2016 17.8099 19.9239 17.4889 19.7423C18.0252 20.9589 16.9518 22.2598 16.3223 23.0212C16.1401 23.2262 15.9745 23.4456 15.8278 23.6774C15.4437 24.3825 15.3146 25.1985 15.4625 25.9878C15.6105 26.777 16.0265 27.491 16.6399 28.009C16.7946 28.1349 16.8178 28.3624 16.6919 28.5171C16.566 28.6718 16.3383 28.6952 16.1836 28.5693C15.4497 27.9406 14.951 27.081 14.77 26.1318C14.5889 25.1826 14.7361 24.2 15.1874 23.3453C15.3545 23.0695 15.5474 22.8104 15.7634 22.5713L15.7673 22.5715ZM17.4226 12.6089C17.6189 13.7641 18.0001 13.9698 18.442 14.1069C18.5295 14.1206 18.6099 14.162 18.6721 14.2251C18.9926 14.6568 19.493 14.918 20.03 14.934C20.1173 14.9355 20.2043 14.9263 20.2894 14.9074C20.424 14.8716 20.5263 14.7617 20.5519 14.6246C20.5775 14.4878 20.5219 14.3481 20.409 14.2664C20.1161 14.0969 19.9108 13.8088 19.8463 13.4767C19.7818 13.1443 19.8642 12.8003 20.0728 12.5338C20.9889 11.162 20.6084 10.5166 19.5848 9.81057C19.3892 9.65539 19.2461 9.44389 19.1746 9.20483C19.1033 8.96577 19.1067 8.71052 19.1847 8.47366C19.2292 8.33782 19.1896 8.18843 19.0832 8.09272C18.9769 7.997 18.8243 7.97307 18.6938 8.03181C18.206 8.2566 17.8178 8.65301 17.6037 9.14564C17.5135 9.46349 17.5266 9.80187 17.6414 10.1115C17.6687 10.2205 17.7137 10.388 17.7224 10.4796L17.7221 10.4799C17.5872 10.4117 17.4637 10.323 17.3562 10.2169C17.2769 10.1408 17.1679 10.1035 17.0586 10.1159C16.9494 10.1292 16.8522 10.1913 16.7944 10.2848C16.5921 10.5261 16.4995 10.8405 16.5384 11.1528C16.5776 11.4651 16.7449 11.7469 17.0001 11.9309C17.2123 12.1023 17.36 12.3408 17.419 12.6072L17.4226 12.6089ZM17.8183 11.2273L17.8181 11.2271C17.9906 11.2227 18.1536 11.1463 18.2672 11.0163C18.4724 10.6929 18.5009 10.288 18.3431 9.93921C18.2851 9.77459 18.2606 9.60008 18.2708 9.4258C18.3102 9.3308 18.3614 9.24113 18.4231 9.1587C18.4789 9.66437 18.7525 10.1205 19.1724 10.4077C19.9427 10.939 20.1353 11.1369 19.4692 12.136C19.1552 12.5856 19.0392 13.1442 19.148 13.6815C19.0075 13.5539 18.8376 13.4633 18.6534 13.4173C18.4368 13.3509 18.2693 13.2982 18.1308 12.4875L18.1306 12.4877C18.0479 12.0744 17.8296 11.7007 17.5105 11.4256C17.3481 11.2625 17.258 11.1716 17.2536 11.0524C17.4189 11.1641 17.6135 11.2245 17.8129 11.2257L17.8183 11.2273Z" fill="#CF6246"/>
<circle cx="25" cy="21" r="20.5" stroke="#CF6246"/>
</g>
<defs>
<filter id="filter0_d_1_61" x="0" y="0" width="50" height="50" filterUnits="userSpaceOnUse" color-interpolation-filters="sRGB">
<feFlood flood-opacity="0" result="BackgroundImageFix"/>
<feColorMatrix in="SourceAlpha" type="matrix" values="0 0 0 0 0 0 0 0 0 0 0 0 0 0 0 0 0 0 127 0" result="hardAlpha"/>
<feOffset dy="4"/>
<feGaussianBlur stdDeviation="2"/>
<feComposite in2="hardAlpha" operator="out"/>
<feColorMatrix type="matrix" values="0 0 0 0 0 0 0 0 0 0 0 0 0 0 0 0 0 0 0.25 0"/>
<feBlend mode="normal" in2="BackgroundImageFix" result="effect1_dropShadow_1_61"/>
<feBlend mode="normal" in="SourceGraphic" in2="effect1_dropShadow_1_61" result="shape"/>
</filter>
</defs>
</svg>
