<svg width="22" height="24" viewBox="0 0 22 24" fill="none" xmlns="http://www.w3.org/2000/svg">
<g filter="url(#filter0_d_1_144)">
<path d="M11 13.7063L7.88749 15.5813C7.74999 15.6688 7.60624 15.7063 7.45624 15.6938C7.30624 15.6813 7.17499 15.6313 7.06249 15.5438C6.94999 15.4563 6.86249 15.347 6.79999 15.216C6.73749 15.0845 6.72499 14.9375 6.76249 14.775L7.58749 11.2313L4.83124 8.85002C4.70624 8.73752 4.62824 8.60927 4.59724 8.46527C4.56574 8.32177 4.57499 8.18127 4.62499 8.04377C4.67499 7.90627 4.74999 7.79377 4.84999 7.70627C4.94999 7.61877 5.08749 7.56252 5.26249 7.53752L8.89999 7.21877L10.3062 3.88127C10.3687 3.73127 10.4657 3.61877 10.5972 3.54377C10.7282 3.46877 10.8625 3.43127 11 3.43127C11.1375 3.43127 11.272 3.46877 11.4035 3.54377C11.5345 3.61877 11.6312 3.73127 11.6937 3.88127L13.1 7.21877L16.7375 7.53752C16.9125 7.56252 17.05 7.61877 17.15 7.70627C17.25 7.79377 17.325 7.90627 17.375 8.04377C17.425 8.18127 17.4345 8.32177 17.4035 8.46527C17.372 8.60927 17.2937 8.73752 17.1687 8.85002L14.4125 11.2313L15.2375 14.775C15.275 14.9375 15.2625 15.0845 15.2 15.216C15.1375 15.347 15.05 15.4563 14.9375 15.5438C14.825 15.6313 14.6937 15.6813 14.5437 15.6938C14.3937 15.7063 14.25 15.6688 14.1125 15.5813L11 13.7063Z" fill="#DCAC6B"/>
</g>
<defs>
<filter id="filter0_d_1_144" x="-2" y="0" width="26" height="26" filterUnits="userSpaceOnUse" color-interpolation-filters="sRGB">
<feFlood flood-opacity="0" result="BackgroundImageFix"/>
<feColorMatrix in="SourceAlpha" type="matrix" values="0 0 0 0 0 0 0 0 0 0 0 0 0 0 0 0 0 0 127 0" result="hardAlpha"/>
<feOffset dy="4"/>
<feGaussianBlur stdDeviation="2"/>
<feComposite in2="hardAlpha" operator="out"/>
<feColorMatrix type="matrix" values="0 0 0 0 0 0 0 0 0 0 0 0 0 0 0 0 0 0 0.25 0"/>
<feBlend mode="normal" in2="BackgroundImageFix" result="effect1_dropShadow_1_144"/>
<feBlend mode="normal" in="SourceGraphic" in2="effect1_dropShadow_1_144" result="shape"/>
</filter>
</defs>
</svg>
