<svg width="42" height="42" viewBox="0 0 42 42" fill="none" xmlns="http://www.w3.org/2000/svg">
<path d="M33.5986 21.4507L32.8926 25.4482L10.3103 25.4484L9.60437 21.4507C10.0717 21.453 10.5294 21.319 10.9217 21.0651C11.3139 20.8113 11.6237 20.4487 11.8132 20.0214L13.1862 20.9656L13.7838 18.25V18.2502C14.2212 18.4238 14.6974 18.4756 15.1618 18.4C15.6262 18.3246 16.0617 18.1245 16.4215 17.8213L17.6732 19.9522L19.9555 15.3354C20.4374 15.6727 21.011 15.8534 21.5992 15.8534C22.1872 15.8534 22.7611 15.6727 23.2429 15.3354L25.5296 19.9567L26.7814 17.8258H26.7812C27.1418 18.1278 27.5774 18.3265 28.042 18.4006C28.5064 18.4745 28.9823 18.4211 29.4188 18.2457L30.0165 20.9656L31.3937 20.0257V20.0259C31.5824 20.4522 31.8916 20.8144 32.2833 21.0675C32.6749 21.3206 33.132 21.4538 33.5983 21.4507L33.5986 21.4507Z" fill="#DFAC69"/>
<path d="M10.392 26.317V29.486C10.3922 29.8112 10.6557 30.0749 10.9809 30.0751H31.5967C31.9188 30.0739 32.2272 29.9452 32.4546 29.717C32.6818 29.489 32.8094 29.1801 32.8094 28.858V26.317L10.392 26.317Z" fill="#DFAC69"/>
<path d="M35.1137 19.0506C35.1137 19.8973 34.4274 20.5837 33.5805 20.5837C32.7338 20.5837 32.0474 19.8973 32.0474 19.0506C32.0474 18.2038 32.7337 17.5173 33.5805 17.5173C34.4273 17.5173 35.1137 18.2037 35.1137 19.0506Z" fill="#DFAC69"/>
<path d="M30.1774 15.8416C30.1774 16.7961 29.4038 17.5697 28.4493 17.5697C27.4949 17.5697 26.7213 16.7961 26.7213 15.8416C26.7213 14.8872 27.4949 14.1136 28.4493 14.1136C29.4038 14.1136 30.1774 14.8872 30.1774 15.8416Z" fill="#DFAC69"/>
<path d="M23.5971 12.9967C23.5971 14.0994 22.7032 14.9933 21.6005 14.9933C20.4979 14.9933 19.604 14.0994 19.604 12.9967C19.604 11.8939 20.4979 11 21.6005 11C22.7032 11 23.5971 11.8939 23.5971 12.9967Z" fill="#DFAC69"/>
<path d="M16.4772 15.8416C16.4772 16.7961 15.7034 17.5697 14.7491 17.5697C13.7947 17.5697 13.0211 16.7961 13.0211 15.8416C13.0211 14.8872 13.7947 14.1136 14.7491 14.1136C15.7034 14.1136 16.4772 14.8872 16.4772 15.8416Z" fill="#DFAC69"/>
<path d="M11.1543 19.0506C11.1543 19.8973 10.4679 20.5837 9.62118 20.5837C8.77432 20.5837 8.08789 19.8973 8.08789 19.0506C8.08789 18.2038 8.77427 17.5173 9.62118 17.5173C10.4678 17.5173 11.1543 18.2037 11.1543 19.0506Z" fill="#DFAC69"/>
<circle cx="21" cy="21" r="20.5" stroke="#DFAC69"/>
</svg>
