<svg width="42" height="42" viewBox="0 0 42 42" fill="none" xmlns="http://www.w3.org/2000/svg">
<path d="M11.9938 20.3946V28.5284C11.9931 28.8199 11.8763 29.0992 11.6696 29.3047C11.4632 29.51 11.1832 29.6251 10.8917 29.6244H8.69385C8.40236 29.6251 8.12238 29.51 7.9157 29.3047C7.70924 29.0992 7.5925 28.8199 7.5918 28.5284V20.3946C7.59579 20.105 7.7137 19.8285 7.91993 19.6251C8.12616 19.4219 8.40426 19.3078 8.69387 19.3078H10.8917C11.1815 19.3071 11.4601 19.4208 11.6666 19.6244C11.8728 19.8278 11.9905 20.1047 11.9938 20.3946Z" fill="#31BC80"/>
<path d="M30.8022 30.1817C30.8015 30.7363 30.5817 31.268 30.1906 31.6612C29.7995 32.0546 29.2691 32.2776 28.7146 32.2815H20.0119C19.4395 32.2778 18.8927 32.0426 18.4964 31.6295L15.1874 28.3326H12.6069V20.5632H18.6927C19.314 20.5636 19.9024 20.8422 20.2968 21.3223L24.1386 25.1519C24.4385 25.4504 24.6408 25.8331 24.7185 26.249C24.796 26.665 24.7455 27.0948 24.5731 27.4815C23.9088 28.0081 22.1609 28.2315 21.6129 27.6835L17.6518 23.7315C17.5304 23.6275 17.3495 23.6345 17.2363 23.7475C17.1233 23.8605 17.1163 24.0416 17.2203 24.163L21.1783 28.1182C21.5708 28.5095 22.1026 28.7299 22.6569 28.7303C23.3827 28.6465 24.0871 28.4306 24.7354 28.0936H28.7151C29.2697 28.0945 29.8012 28.3148 30.1937 28.7066C30.586 29.0986 30.8072 29.6299 30.8088 30.1845L30.8022 30.1817Z" fill="#31BC80"/>
<path d="M36.8805 15.2823C36.0634 16.092 35.374 17.021 34.8356 18.0375C33.9785 19.4887 33.1672 20.8569 31.3367 20.9731C31.1589 20.9938 30.9799 21.0041 30.801 21.0036C29.7943 21.0551 28.8197 20.6421 28.1562 19.8835C28.1188 19.8384 28.0841 19.7914 28.0521 19.7425C30.2532 18.212 33.2562 17.0639 33.2959 17.0486C33.4524 16.9887 33.5315 16.814 33.4735 16.6568C33.4453 16.5803 33.3878 16.5182 33.3135 16.4844C33.2393 16.4506 33.1548 16.4475 33.0784 16.4762C31.2102 17.1968 29.4227 18.1122 27.7458 19.2067C27.4212 18.3811 27.4047 17.466 27.7 16.6294C27.8776 16.0424 28.1923 15.5061 28.6184 15.065C30.1735 13.519 32.9041 13.421 36.7612 14.7589C36.8634 14.7949 36.9393 14.882 36.9602 14.9884C36.9877 15.0937 36.9574 15.2055 36.8806 15.2823L36.8805 15.2823Z" fill="#31BC80"/>
<path d="M17.3883 12.726C17.3385 12.8873 17.429 13.0586 17.5903 13.1086C19.9497 13.9103 22.1856 15.0375 24.233 16.4576C24.1087 16.7491 23.9448 17.022 23.7463 17.2688C23.036 18.1412 21.9095 18.6065 20.5718 18.6065C20.3538 18.606 20.1361 18.5938 19.9198 18.5696C17.7431 18.432 16.7758 16.7758 15.729 15.0219C15.0464 13.871 14.3422 12.6802 13.2279 11.6546C13.1478 11.582 13.1116 11.4728 13.133 11.3667C13.1551 11.2617 13.2305 11.1757 13.3319 11.1402C18.0003 9.51177 21.3065 9.62807 23.1801 11.4862C23.6971 12.0145 24.0802 12.659 24.2975 13.3658C24.5648 14.1662 24.6103 15.0241 24.429 15.8483C22.3784 14.4357 20.1405 13.3165 17.7804 12.5239C17.7017 12.4972 17.6155 12.5035 17.5415 12.5416C17.4675 12.5798 17.4123 12.6463 17.3886 12.7259L17.3883 12.726Z" fill="#31BC80"/>
<path d="M26.0877 28.6173C25.9185 28.6173 25.7814 28.4802 25.7814 28.3113V11.043C25.7814 10.8739 25.9185 10.737 26.0877 10.737C26.2565 10.737 26.3937 10.8739 26.3937 11.043V28.3113C26.3937 28.3923 26.3615 28.4703 26.304 28.5276C26.2467 28.5852 26.1687 28.6173 26.0877 28.6173Z" fill="#31BC80"/>
<path d="M26.3113 17.7769C26.2535 17.8392 26.1727 17.8746 26.0879 17.8749C26.0109 17.8753 25.9366 17.8469 25.8796 17.7952C25.3609 17.3196 24.813 16.8769 24.2389 16.4698C24.3232 16.272 24.3897 16.0672 24.4378 15.8574C25.0882 16.3098 25.7081 16.8047 26.293 17.3391C26.3543 17.3943 26.3909 17.4718 26.3945 17.5543C26.3977 17.6367 26.3679 17.7168 26.3113 17.7769Z" fill="#31BC80"/>
<path d="M28.0526 19.7398C27.4071 20.1642 26.8267 20.6798 26.329 21.2703C26.2242 21.4039 26.0309 21.4272 25.8975 21.3224C25.7638 21.2176 25.7406 21.0243 25.8453 20.8907C26.3931 20.2375 27.0334 19.6684 27.7462 19.2009C27.8275 19.3916 27.9302 19.5723 28.0526 19.7398Z" fill="#31BC80"/>
<circle cx="21" cy="21" r="20.5" stroke="#31BC80"/>
</svg>
